<svg xmlns="http://www.w3.org/2000/svg" xmlns:xlink="http://www.w3.org/1999/xlink" width="1080" zoomAndPan="magnify" viewBox="0 0 810 1439.999935" height="1920" preserveAspectRatio="xMidYMid meet" version="1.0"><defs><clipPath id="64d15bdb5c"><path d="M 193.429688 521 L 313 521 L 313 685 L 193.429688 685 Z M 193.429688 521 " clip-rule="nonzero"/></clipPath></defs><path fill="#3e721d" d="M 508.910156 652.933594 C 505.238281 652.933594 501.683594 651.023438 499.742188 647.613281 L 455.058594 574.011719 C 452.167969 568.957031 453.296875 562.628906 458.351562 559.726562 L 510.664062 528.074219 C 512.308594 527.132812 515.894531 526.320312 517.667969 526.320312 C 521.339844 526.320312 524.757812 528.410156 526.699219 531.820312 L 559.480469 585.859375 L 561.210938 609.410156 C 564.101562 614.464844 551.105469 621.902344 546.039062 624.792969 L 514.121094 651.539062 C 512.488281 652.488281 510.683594 652.933594 508.910156 652.933594 Z M 508.910156 652.933594 " fill-opacity="1" fill-rule="nonzero"/><path fill="#77b255" d="M 435.042969 684.585938 C 429.210938 684.585938 424.492188 679.867188 424.492188 674.035156 L 424.492188 610.726562 C 424.492188 604.894531 429.210938 600.175781 435.042969 600.175781 L 540.550781 600.175781 C 560.070312 600.175781 556.90625 581.386719 556.90625 581.386719 C 556.90625 581.386719 560.355469 587.316406 560.863281 588.253906 C 564.3125 594.734375 566.601562 604.628906 561.222656 614.683594 L 528.628906 679.277344 C 527.101562 682.328125 523.449219 684.585938 519.449219 684.585938 Z M 435.042969 684.585938 " fill-opacity="1" fill-rule="nonzero"/><path fill="#77b255" d="M 424.492188 716.238281 C 421.75 716.238281 419.050781 715.160156 417.035156 713.144531 L 353.730469 649.839844 C 349.601562 645.714844 349.601562 639.046875 353.730469 634.921875 L 417.035156 571.617188 C 419.050781 569.601562 421.75 568.523438 424.492188 568.523438 C 425.855469 568.523438 427.226562 568.777344 428.535156 569.328125 C 432.480469 570.953125 435.042969 574.8125 435.042969 579.074219 L 435.042969 705.6875 C 435.042969 709.949219 432.480469 713.808594 428.535156 715.433594 C 427.226562 715.984375 425.855469 716.238281 424.492188 716.238281 Z M 424.492188 716.238281 " fill-opacity="1" fill-rule="nonzero"/><path fill="#3e721d" d="M 409.648438 381.765625 C 411.316406 385.035156 411.230469 389.066406 409.078125 392.359375 L 363.785156 465.582031 C 360.585938 470.464844 354.4375 472.324219 349.5625 469.125 L 297.609375 436.902344 C 296.027344 435.859375 293.664062 433.03125 292.859375 431.460938 C 291.195312 428.1875 291.5 424.199219 293.652344 420.910156 L 326.910156 367.164062 L 347.101562 354.933594 C 350.300781 350.046875 362.824219 358.257812 367.707031 361.464844 L 406.019531 377.753906 C 407.621094 378.800781 408.847656 380.203125 409.648438 381.765625 Z M 409.648438 381.765625 " fill-opacity="1" fill-rule="nonzero"/><path fill="#77b255" d="M 471.382812 433.210938 C 474.03125 438.410156 471.984375 444.753906 466.769531 447.410156 L 410.355469 476.152344 C 405.164062 478.789062 398.8125 476.734375 396.175781 471.542969 L 348.253906 377.535156 C 339.402344 360.136719 324.089844 371.488281 324.089844 371.488281 C 324.089844 371.488281 327.804688 365.726562 328.417969 364.839844 C 332.628906 358.828125 340.394531 352.304688 351.796875 352.527344 L 424.167969 352.234375 C 427.585938 352.234375 431.246094 354.4375 433.070312 358.003906 Z M 471.382812 433.210938 " fill-opacity="1" fill-rule="nonzero"/><path fill="#77b255" d="M 504.375 428.25 C 505.617188 430.6875 505.882812 433.578125 505.007812 436.292969 L 477.351562 521.445312 C 475.558594 526.988281 469.609375 530.015625 464.058594 528.222656 L 378.914062 500.546875 C 376.191406 499.671875 374.019531 497.75 372.761719 495.3125 C 372.140625 494.109375 371.75 492.757812 371.632812 491.34375 C 371.296875 487.082031 373.574219 483.050781 377.375 481.121094 L 490.183594 423.640625 C 493.980469 421.699219 498.570312 422.226562 501.820312 425.011719 C 502.90625 425.917969 503.761719 427.039062 504.375 428.25 Z M 504.375 428.25 " fill-opacity="1" fill-rule="nonzero"/><path fill="#3e721d" d="M 227.984375 605.894531 C 229.894531 602.761719 233.363281 600.726562 237.289062 600.84375 L 323.394531 600.894531 C 329.230469 601.074219 334.039062 605.328125 333.894531 611.152344 L 333.746094 672.292969 C 333.691406 674.191406 332.523438 677.695312 331.605469 679.191406 C 329.695312 682.328125 326.128906 684.171875 322.203125 684.058594 L 259.003906 683.972656 L 237.976562 673.222656 C 232.160156 673.042969 232.5625 658.082031 232.710938 652.265625 L 226.453125 611.078125 C 226.496094 609.1875 227.066406 607.40625 227.984375 605.894531 Z M 227.984375 605.894531 " fill-opacity="1" fill-rule="nonzero"/><g clip-path="url(#64d15bdb5c)"><path fill="#77b255" d="M 239.335938 526.34375 C 242.363281 521.363281 248.851562 519.78125 253.832031 522.808594 L 307.917969 555.714844 C 312.90625 558.746094 314.480469 565.222656 311.453125 570.214844 L 256.617188 660.347656 C 246.488281 677.019531 264.183594 684.089844 264.183594 684.089844 C 264.183594 684.089844 257.324219 683.941406 256.261719 683.878906 C 248.917969 683.476562 239.285156 680.28125 233.480469 670.46875 L 195.222656 609.0625 C 193.417969 606.160156 193.386719 601.867188 195.464844 598.449219 Z M 239.335938 526.34375 " fill-opacity="1" fill-rule="nonzero"/></g><path fill="#77b255" d="M 217.769531 500.882812 C 219.207031 498.519531 221.515625 496.789062 224.292969 496.09375 L 311.28125 474.929688 C 316.949219 473.535156 322.644531 477.007812 324.027344 482.671875 L 345.203125 569.652344 C 345.878906 572.441406 345.382812 575.289062 343.957031 577.640625 C 343.261719 578.792969 342.324219 579.835938 341.171875 580.679688 C 337.734375 583.191406 333.113281 583.378906 329.460938 581.164062 L 221.316406 515.378906 C 217.664062 513.152344 215.714844 508.953125 216.367188 504.746094 C 216.578125 503.332031 217.0625 502.042969 217.769531 500.882812 Z M 217.769531 500.882812 " fill-opacity="1" fill-rule="nonzero"/></svg>