<svg xmlns="http://www.w3.org/2000/svg" xmlns:xlink="http://www.w3.org/1999/xlink" width="500" zoomAndPan="magnify" viewBox="0 0 375 374.999991" height="500" preserveAspectRatio="xMidYMid meet" version="1.0"><defs><clipPath id="5fb937fef0"><path d="M 0 0 L 374.25 0 L 374.25 375 L 0 375 Z M 0 0 " clip-rule="nonzero"/></clipPath></defs><g clip-path="url(#5fb937fef0)"><path fill="#ffdd73" d="M 374.25 187.503906 C 374.25 290.84375 290.507812 374.46875 187.121094 374.46875 C 83.757812 374.460938 0 290.84375 0 187.503906 C 0 84.234375 83.757812 0.53125 187.113281 0.53125 C 290.5 0.53125 374.25 84.234375 374.25 187.503906 Z M 374.25 187.503906 " fill-opacity="1" fill-rule="nonzero"/></g><path fill="#ffffff" d="M 90.542969 165.324219 L 289.039062 165.324219 L 289.039062 212.042969 L 90.542969 212.042969 Z M 90.542969 165.324219 " fill-opacity="1" fill-rule="nonzero"/><path fill="#ffffff" d="M 166.417969 89.523438 L 213.207031 89.523438 L 213.207031 287.828125 L 166.417969 287.828125 Z M 166.417969 89.523438 " fill-opacity="1" fill-rule="nonzero"/></svg>