<svg xmlns="http://www.w3.org/2000/svg" xmlns:xlink="http://www.w3.org/1999/xlink" width="1080" zoomAndPan="magnify" viewBox="0 0 810 809.999993" height="1080" preserveAspectRatio="xMidYMid meet" version="1.0"><defs><clipPath id="1823c41d88"><path d="M 13.5 13.5 L 796.5 13.5 L 796.5 796.5 L 13.5 796.5 Z M 13.5 13.5 " clip-rule="nonzero"/></clipPath></defs><g clip-path="url(#1823c41d88)"><path fill="#ffffff" d="M 405 13.5 C 189.042969 13.5 13.5 189.042969 13.5 405 C 13.5 620.957031 189.042969 796.5 405 796.5 C 620.957031 796.5 796.5 620.957031 796.5 405 C 796.5 189.042969 620.957031 13.5 405 13.5 Z M 625 442.886719 L 442.886719 442.886719 L 442.886719 624.996094 C 442.886719 645.707031 425.964844 662.882812 405 662.882812 C 384.035156 662.882812 367.113281 645.707031 367.113281 624.996094 L 367.113281 442.886719 L 185 442.886719 C 164.289062 442.886719 147.113281 425.964844 147.113281 405 C 147.113281 384.035156 164.289062 367.113281 185 367.113281 L 367.113281 367.113281 L 367.113281 185 C 367.113281 164.289062 384.035156 147.113281 405 147.113281 C 425.964844 147.113281 442.886719 164.289062 442.886719 185 L 442.886719 367.113281 L 625 367.113281 C 645.710938 367.113281 662.886719 384.035156 662.886719 405 C 662.886719 425.964844 645.710938 442.886719 625 442.886719 Z M 625 442.886719 " fill-opacity="1" fill-rule="nonzero"/></g></svg>