<svg xmlns="http://www.w3.org/2000/svg" xmlns:xlink="http://www.w3.org/1999/xlink" width="500" zoomAndPan="magnify" viewBox="0 0 375 374.999991" height="500" preserveAspectRatio="xMidYMid meet" version="1.0"><defs><clipPath id="a2a1991faf"><path d="M 7.710938 7.710938 L 366.960938 7.710938 L 366.960938 366.960938 L 7.710938 366.960938 Z M 7.710938 7.710938 " clip-rule="nonzero"/></clipPath></defs><path fill="#5ccd55" d="M 217.265625 139.273438 C 210.183594 139.273438 204.441406 145.015625 204.441406 152.101562 L 204.441406 242.746094 C 204.441406 249.828125 210.183594 255.574219 217.265625 255.574219 C 224.351562 255.574219 230.09375 249.828125 230.09375 242.746094 L 230.09375 152.101562 C 230.09375 145.015625 224.351562 139.273438 217.265625 139.273438 Z M 217.265625 139.273438 " fill-opacity="1" fill-rule="nonzero"/><g clip-path="url(#a2a1991faf)"><path fill="#5ccd55" d="M 187.335938 7.710938 C 88.132812 7.710938 7.710938 88.132812 7.710938 187.335938 C 7.710938 286.539062 88.132812 366.960938 187.335938 366.960938 C 286.539062 366.960938 366.960938 286.539062 366.960938 187.335938 C 366.960938 88.132812 286.539062 7.710938 187.335938 7.710938 Z M 264.300781 122.171875 L 264.300781 264.125 C 264.300781 278.292969 252.8125 289.777344 238.644531 289.777344 L 136.027344 289.777344 C 121.859375 289.777344 110.375 278.292969 110.375 264.125 L 110.375 122.171875 C 100.929688 122.171875 93.269531 114.511719 93.269531 105.066406 C 93.269531 95.621094 100.929688 87.964844 110.375 87.964844 L 145.3125 87.964844 C 147.582031 87.964844 149.757812 87.0625 151.359375 85.460938 L 163.453125 73.367188 C 165.058594 71.761719 167.234375 70.859375 169.5 70.859375 L 205.175781 70.859375 C 207.441406 70.859375 209.617188 71.761719 211.222656 73.367188 L 223.316406 85.460938 C 224.917969 87.0625 227.09375 87.964844 229.363281 87.964844 L 264.300781 87.964844 C 273.746094 87.964844 281.40625 95.621094 281.40625 105.066406 C 281.40625 114.511719 273.746094 122.171875 264.300781 122.171875 Z M 264.300781 122.171875 " fill-opacity="1" fill-rule="nonzero"/></g><path fill="#5ccd55" d="M 157.40625 139.273438 C 150.324219 139.273438 144.578125 145.015625 144.578125 152.101562 L 144.578125 242.746094 C 144.578125 249.828125 150.324219 255.574219 157.40625 255.574219 C 164.492188 255.574219 170.234375 249.828125 170.234375 242.746094 L 170.234375 152.101562 C 170.234375 145.015625 164.492188 139.273438 157.40625 139.273438 Z M 157.40625 139.273438 " fill-opacity="1" fill-rule="nonzero"/></svg>