<svg xmlns="http://www.w3.org/2000/svg" xmlns:xlink="http://www.w3.org/1999/xlink" width="500" zoomAndPan="magnify" viewBox="0 0 375 374.999991" height="500" preserveAspectRatio="xMidYMid meet" version="1.0"><defs><clipPath id="3b2100120f"><path d="M 31.972656 5.542969 L 358.222656 5.542969 L 358.222656 369.292969 L 31.972656 369.292969 Z M 31.972656 5.542969 " clip-rule="nonzero"/></clipPath></defs><g clip-path="url(#3b2100120f)"><path fill="#3fbfbb" d="M 358.210938 168.582031 C 358.210938 78.5625 285.1875 5.589844 195.101562 5.589844 C 105.011719 5.589844 31.980469 78.5625 31.980469 168.582031 C 31.980469 258.605469 105.011719 331.578125 195.101562 331.578125 C 202.914062 331.578125 210.585938 331.015625 218.109375 329.960938 L 259.601562 369.246094 L 259.601562 318.335938 C 317.601562 293.355469 358.210938 235.707031 358.210938 168.582031 " fill-opacity="1" fill-rule="nonzero"/></g><path fill="#ffffff" d="M 74.679688 163 C 74.679688 147.359375 85.539062 135.648438 100.742188 135.648438 C 115.957031 135.648438 126.378906 146.9375 126.378906 163 C 126.378906 178.625 115.957031 190.34375 99.882812 190.34375 C 85.117188 190.34375 74.679688 178.625 74.679688 163 " fill-opacity="1" fill-rule="nonzero"/><path fill="#ffffff" d="M 164.648438 163 C 164.648438 147.359375 175.511719 135.648438 190.714844 135.648438 C 205.929688 135.648438 216.347656 146.9375 216.347656 163 C 216.347656 178.625 205.929688 190.34375 189.851562 190.34375 C 175.082031 190.34375 164.648438 178.625 164.648438 163 " fill-opacity="1" fill-rule="nonzero"/><path fill="#ffffff" d="M 254.613281 163 C 254.613281 147.359375 265.476562 135.648438 280.6875 135.648438 C 295.894531 135.648438 306.3125 146.9375 306.3125 163 C 306.3125 178.625 295.894531 190.34375 279.824219 190.34375 C 265.050781 190.34375 254.613281 178.625 254.613281 163 " fill-opacity="1" fill-rule="nonzero"/></svg>