<svg xmlns="http://www.w3.org/2000/svg" xmlns:xlink="http://www.w3.org/1999/xlink" width="1080" zoomAndPan="magnify" viewBox="0 0 810 809.999993" height="1080" preserveAspectRatio="xMidYMid meet" version="1.0"><defs><clipPath id="50832b1a0b"><path d="M 15.300781 15.300781 L 794.550781 15.300781 L 794.550781 794.550781 L 15.300781 794.550781 Z M 15.300781 15.300781 " clip-rule="nonzero"/></clipPath></defs><g clip-path="url(#50832b1a0b)"><path fill="#ffffff" d="M 404.925781 15.300781 C 398.546875 15.300781 392.175781 15.457031 385.808594 15.769531 C 379.4375 16.082031 373.082031 16.550781 366.734375 17.175781 C 360.390625 17.800781 354.0625 18.582031 347.753906 19.515625 C 341.449219 20.453125 335.167969 21.542969 328.914062 22.785156 C 322.660156 24.03125 316.4375 25.425781 310.253906 26.976562 C 304.070312 28.527344 297.925781 30.226562 291.824219 32.078125 C 285.722656 33.929688 279.667969 35.929688 273.664062 38.074219 C 267.660156 40.222656 261.714844 42.519531 255.820312 44.957031 C 249.929688 47.398438 244.101562 49.980469 238.339844 52.707031 C 232.574219 55.433594 226.878906 58.300781 221.257812 61.304688 C 215.632812 64.3125 210.085938 67.453125 204.617188 70.734375 C 199.148438 74.011719 193.761719 77.421875 188.460938 80.964844 C 183.160156 84.507812 177.949219 88.175781 172.824219 91.976562 C 167.703125 95.773438 162.679688 99.695312 157.75 103.742188 C 152.820312 107.785156 147.992188 111.949219 143.269531 116.230469 C 138.542969 120.515625 133.925781 124.910156 129.417969 129.417969 C 124.910156 133.925781 120.515625 138.542969 116.230469 143.269531 C 111.949219 147.992188 107.785156 152.820312 103.742188 157.75 C 99.695312 162.679688 95.773438 167.703125 91.976562 172.824219 C 88.175781 177.949219 84.507812 183.160156 80.964844 188.460938 C 77.421875 193.761719 74.011719 199.148438 70.734375 204.617188 C 67.453125 210.085938 64.3125 215.632812 61.304688 221.257812 C 58.300781 226.878906 55.433594 232.574219 52.707031 238.339844 C 49.980469 244.101562 47.398438 249.929688 44.957031 255.820312 C 42.519531 261.714844 40.222656 267.660156 38.074219 273.664062 C 35.925781 279.667969 33.929688 285.722656 32.078125 291.824219 C 30.226562 297.925781 28.527344 304.070312 26.976562 310.253906 C 25.425781 316.4375 24.03125 322.660156 22.785156 328.914062 C 21.542969 335.167969 20.453125 341.449219 19.515625 347.753906 C 18.582031 354.0625 17.800781 360.390625 17.175781 366.734375 C 16.550781 373.082031 16.082031 379.4375 15.769531 385.808594 C 15.457031 392.175781 15.300781 398.546875 15.300781 404.925781 C 15.300781 411.300781 15.457031 417.675781 15.769531 424.042969 C 16.082031 430.410156 16.550781 436.769531 17.175781 443.113281 C 17.800781 449.460938 18.582031 455.789062 19.515625 462.09375 C 20.453125 468.402344 21.542969 474.683594 22.785156 480.9375 C 24.03125 487.191406 25.425781 493.410156 26.976562 499.597656 C 28.527344 505.78125 30.226562 511.925781 32.078125 518.027344 C 33.929688 524.128906 35.925781 530.183594 38.074219 536.1875 C 40.222656 542.191406 42.519531 548.136719 44.957031 554.027344 C 47.398438 559.917969 49.980469 565.746094 52.707031 571.511719 C 55.433594 577.277344 58.300781 582.96875 61.304688 588.59375 C 64.3125 594.214844 67.453125 599.761719 70.734375 605.230469 C 74.011719 610.703125 77.421875 616.085938 80.964844 621.390625 C 84.507812 626.691406 88.175781 631.902344 91.976562 637.023438 C 95.773438 642.144531 99.695312 647.171875 103.742188 652.101562 C 107.785156 657.03125 111.949219 661.855469 116.230469 666.582031 C 120.515625 671.304688 124.910156 675.921875 129.417969 680.429688 C 133.925781 684.941406 138.542969 689.335938 143.269531 693.617188 C 147.992188 697.898438 152.820312 702.0625 157.75 706.109375 C 162.679688 710.15625 167.703125 714.078125 172.824219 717.875 C 177.949219 721.671875 183.160156 725.34375 188.460938 728.886719 C 193.761719 732.429688 199.148438 735.839844 204.617188 739.117188 C 210.085938 742.394531 215.632812 745.539062 221.257812 748.542969 C 226.878906 751.550781 232.574219 754.414062 238.339844 757.140625 C 244.101562 759.867188 249.929688 762.453125 255.820312 764.890625 C 261.714844 767.332031 267.660156 769.625 273.664062 771.773438 C 279.667969 773.921875 285.722656 775.921875 291.824219 777.773438 C 297.925781 779.625 304.070312 781.324219 310.253906 782.875 C 316.4375 784.421875 322.660156 785.820312 328.914062 787.0625 C 335.167969 788.308594 341.449219 789.398438 347.753906 790.332031 C 354.0625 791.269531 360.390625 792.050781 366.734375 792.675781 C 373.082031 793.300781 379.4375 793.769531 385.808594 794.082031 C 392.175781 794.394531 398.546875 794.550781 404.925781 794.550781 C 411.300781 794.550781 417.675781 794.394531 424.042969 794.082031 C 430.410156 793.769531 436.769531 793.300781 443.113281 792.675781 C 449.460938 792.050781 455.789062 791.269531 462.09375 790.332031 C 468.402344 789.398438 474.683594 788.308594 480.9375 787.0625 C 487.191406 785.820312 493.410156 784.421875 499.597656 782.875 C 505.78125 781.324219 511.925781 779.625 518.027344 777.773438 C 524.128906 775.921875 530.183594 773.921875 536.1875 771.773438 C 542.191406 769.625 548.136719 767.332031 554.027344 764.890625 C 559.917969 762.453125 565.746094 759.867188 571.511719 757.140625 C 577.273438 754.414062 582.96875 751.550781 588.59375 748.542969 C 594.214844 745.539062 599.761719 742.394531 605.230469 739.117188 C 610.703125 735.839844 616.085938 732.429688 621.390625 728.886719 C 626.691406 725.34375 631.902344 721.671875 637.023438 717.875 C 642.144531 714.078125 647.171875 710.15625 652.101562 706.109375 C 657.03125 702.0625 661.855469 697.898438 666.582031 693.617188 C 671.304688 689.335938 675.921875 684.941406 680.429688 680.429688 C 684.941406 675.921875 689.335938 671.304688 693.617188 666.582031 C 697.898438 661.855469 702.0625 657.03125 706.109375 652.101562 C 710.15625 647.171875 714.078125 642.144531 717.875 637.023438 C 721.671875 631.902344 725.34375 626.691406 728.886719 621.390625 C 732.429688 616.085938 735.839844 610.703125 739.117188 605.230469 C 742.394531 599.761719 745.539062 594.214844 748.542969 588.59375 C 751.550781 582.96875 754.414062 577.277344 757.140625 571.511719 C 759.867188 565.746094 762.453125 559.917969 764.890625 554.027344 C 767.332031 548.136719 769.625 542.191406 771.773438 536.1875 C 773.921875 530.183594 775.921875 524.128906 777.773438 518.027344 C 779.625 511.925781 781.324219 505.78125 782.875 499.597656 C 784.421875 493.410156 785.820312 487.191406 787.0625 480.9375 C 788.308594 474.683594 789.398438 468.402344 790.332031 462.09375 C 791.269531 455.789062 792.046875 449.460938 792.671875 443.113281 C 793.296875 436.769531 793.769531 430.410156 794.082031 424.042969 C 794.394531 417.675781 794.550781 411.300781 794.550781 404.925781 C 794.550781 398.546875 794.390625 392.175781 794.078125 385.808594 C 793.765625 379.4375 793.296875 373.082031 792.667969 366.738281 C 792.042969 360.390625 791.261719 354.066406 790.328125 347.757812 C 789.390625 341.449219 788.300781 335.171875 787.054688 328.917969 C 785.8125 322.664062 784.414062 316.441406 782.863281 310.257812 C 781.3125 304.074219 779.613281 297.929688 777.761719 291.828125 C 775.910156 285.726562 773.910156 279.675781 771.761719 273.671875 C 769.613281 267.667969 767.320312 261.71875 764.878906 255.828125 C 762.4375 249.9375 759.855469 244.113281 757.128906 238.347656 C 754.402344 232.582031 751.535156 226.890625 748.527344 221.265625 C 745.523438 215.644531 742.382812 210.097656 739.101562 204.628906 C 735.824219 199.160156 732.414062 193.773438 728.871094 188.472656 C 725.328125 183.171875 721.65625 177.960938 717.859375 172.839844 C 714.0625 167.714844 710.140625 162.691406 706.09375 157.761719 C 702.050781 152.832031 697.886719 148.007812 693.601562 143.28125 C 689.320312 138.558594 684.925781 133.941406 680.417969 129.433594 C 675.910156 124.925781 671.292969 120.527344 666.566406 116.246094 C 661.84375 111.964844 657.015625 107.800781 652.085938 103.753906 C 647.160156 99.710938 642.132812 95.789062 637.011719 91.992188 C 631.890625 88.191406 626.679688 84.519531 621.378906 80.980469 C 616.074219 77.4375 610.691406 74.027344 605.222656 70.746094 C 599.753906 67.46875 594.207031 64.328125 588.582031 61.320312 C 582.960938 58.316406 577.265625 55.449219 571.503906 52.722656 C 565.738281 49.996094 559.910156 47.410156 554.019531 44.972656 C 548.128906 42.53125 542.183594 40.238281 536.179688 38.089844 C 530.175781 35.941406 524.125 33.941406 518.023438 32.089844 C 511.921875 30.238281 505.777344 28.535156 499.589844 26.984375 C 493.40625 25.4375 487.1875 24.039062 480.933594 22.792969 C 474.679688 21.550781 468.398438 20.460938 462.09375 19.523438 C 455.785156 18.585938 449.457031 17.804688 443.113281 17.179688 C 436.769531 16.554688 430.410156 16.085938 424.042969 15.773438 C 417.671875 15.457031 411.300781 15.300781 404.925781 15.300781 Z M 225.453125 212.667969 L 584.394531 212.667969 C 586.292969 212.667969 588.183594 212.75 590.074219 212.917969 C 591.960938 213.085938 593.839844 213.335938 595.707031 213.671875 C 597.574219 214.003906 599.421875 214.421875 601.25 214.921875 C 603.078125 215.417969 604.882812 215.996094 606.660156 216.65625 C 608.4375 217.316406 610.183594 218.050781 611.898438 218.863281 C 613.609375 219.679688 615.28125 220.566406 616.917969 221.527344 C 618.550781 222.492188 620.136719 223.523438 621.679688 224.628906 C 623.222656 225.730469 624.710938 226.902344 626.148438 228.136719 C 627.585938 229.375 628.96875 230.671875 630.289062 232.03125 C 631.613281 233.386719 632.871094 234.804688 634.070312 236.273438 C 635.265625 237.746094 636.394531 239.265625 637.457031 240.835938 C 638.519531 242.40625 639.507812 244.023438 640.425781 245.679688 C 641.34375 247.339844 642.1875 249.035156 642.953125 250.769531 C 643.722656 252.503906 644.410156 254.269531 645.023438 256.0625 C 645.632812 257.859375 646.160156 259.675781 646.609375 261.519531 C 647.058594 263.363281 647.425781 265.21875 647.710938 267.09375 C 642.597656 269.894531 445.347656 383.617188 432.320312 391.042969 C 430.238281 392.222656 428.09375 393.261719 425.878906 394.160156 C 423.664062 395.0625 421.402344 395.816406 419.089844 396.425781 C 416.777344 397.035156 414.4375 397.492188 412.066406 397.796875 C 409.695312 398.105469 407.316406 398.257812 404.925781 398.257812 C 402.535156 398.257812 400.152344 398.105469 397.785156 397.796875 C 395.414062 397.492188 393.070312 397.035156 390.761719 396.425781 C 388.449219 395.816406 386.1875 395.0625 383.972656 394.160156 C 381.757812 393.261719 379.609375 392.222656 377.53125 391.042969 C 364.746094 383.738281 167.011719 271.113281 162.140625 268.070312 C 162.394531 266.171875 162.734375 264.289062 163.15625 262.421875 C 163.582031 260.554688 164.085938 258.710938 164.675781 256.890625 C 165.265625 255.066406 165.933594 253.277344 166.6875 251.515625 C 167.4375 249.753906 168.265625 248.03125 169.167969 246.34375 C 170.074219 244.65625 171.054688 243.011719 172.105469 241.414062 C 173.160156 239.816406 174.28125 238.265625 175.476562 236.769531 C 176.667969 235.269531 177.925781 233.828125 179.246094 232.445312 C 180.570312 231.058594 181.949219 229.738281 183.390625 228.476562 C 184.832031 227.214844 186.324219 226.023438 187.875 224.894531 C 189.421875 223.769531 191.019531 222.714844 192.660156 221.730469 C 194.304688 220.75 195.988281 219.839844 197.710938 219.011719 C 199.4375 218.179688 201.195312 217.425781 202.988281 216.753906 C 204.777344 216.078125 206.597656 215.488281 208.441406 214.976562 C 210.289062 214.46875 212.152344 214.042969 214.035156 213.699219 C 215.921875 213.355469 217.816406 213.101562 219.722656 212.925781 C 221.628906 212.753906 223.539062 212.667969 225.453125 212.667969 Z M 648.441406 533.136719 C 648.4375 534.183594 648.414062 535.230469 648.359375 536.277344 C 648.308594 537.324219 648.230469 538.367188 648.125 539.410156 C 648.019531 540.453125 647.890625 541.492188 647.738281 542.53125 C 647.582031 543.566406 647.402344 544.597656 647.195312 545.625 C 646.992188 546.652344 646.761719 547.675781 646.507812 548.691406 C 646.25 549.707031 645.96875 550.714844 645.664062 551.71875 C 645.359375 552.722656 645.03125 553.714844 644.675781 554.703125 C 644.324219 555.6875 643.945312 556.664062 643.542969 557.632812 C 643.144531 558.601562 642.71875 559.558594 642.269531 560.503906 C 641.820312 561.453125 641.351562 562.386719 640.855469 563.3125 C 640.359375 564.234375 639.84375 565.144531 639.304688 566.042969 C 638.765625 566.941406 638.207031 567.828125 637.625 568.699219 C 637.039062 569.570312 636.4375 570.425781 635.8125 571.269531 C 635.1875 572.109375 634.542969 572.933594 633.878906 573.746094 C 633.214844 574.554688 632.53125 575.347656 631.828125 576.125 C 631.121094 576.898438 630.402344 577.660156 629.660156 578.398438 C 628.917969 579.140625 628.160156 579.863281 627.382812 580.566406 C 626.609375 581.269531 625.8125 581.953125 625.003906 582.621094 C 624.195312 583.285156 623.367188 583.929688 622.527344 584.554688 C 621.6875 585.175781 620.828125 585.78125 619.957031 586.363281 C 619.085938 586.945312 618.203125 587.507812 617.304688 588.046875 C 616.40625 588.585938 615.496094 589.101562 614.570312 589.59375 C 613.648438 590.089844 612.710938 590.5625 611.765625 591.007812 C 610.816406 591.457031 609.859375 591.882812 608.894531 592.285156 C 607.925781 592.6875 606.949219 593.0625 605.960938 593.417969 C 604.976562 593.769531 603.980469 594.101562 602.976562 594.40625 C 601.976562 594.710938 600.964844 594.992188 599.949219 595.246094 C 598.933594 595.5 597.914062 595.730469 596.886719 595.9375 C 595.859375 596.140625 594.824219 596.324219 593.789062 596.476562 C 592.753906 596.632812 591.714844 596.761719 590.671875 596.863281 C 589.628906 596.96875 588.582031 597.046875 587.539062 597.101562 C 586.492188 597.152344 585.445312 597.179688 584.394531 597.179688 L 225.453125 597.179688 C 224.40625 597.179688 223.359375 597.152344 222.3125 597.101562 C 221.265625 597.046875 220.222656 596.96875 219.179688 596.863281 C 218.136719 596.761719 217.097656 596.632812 216.0625 596.476562 C 215.023438 596.324219 213.992188 596.140625 212.964844 595.9375 C 211.9375 595.730469 210.914062 595.5 209.898438 595.246094 C 208.882812 594.992188 207.875 594.710938 206.871094 594.40625 C 205.867188 594.101562 204.875 593.769531 203.886719 593.417969 C 202.902344 593.0625 201.925781 592.6875 200.957031 592.285156 C 199.988281 591.882812 199.03125 591.457031 198.085938 591.007812 C 197.136719 590.5625 196.203125 590.089844 195.277344 589.59375 C 194.355469 589.101562 193.445312 588.585938 192.546875 588.046875 C 191.648438 587.507812 190.761719 586.945312 189.890625 586.363281 C 189.019531 585.78125 188.164062 585.175781 187.324219 584.554688 C 186.480469 583.929688 185.65625 583.285156 184.84375 582.621094 C 184.035156 581.953125 183.242188 581.269531 182.464844 580.566406 C 181.691406 579.863281 180.929688 579.140625 180.191406 578.398438 C 179.449219 577.660156 178.726562 576.898438 178.023438 576.125 C 177.320312 575.347656 176.636719 574.554688 175.972656 573.746094 C 175.304688 572.933594 174.660156 572.109375 174.035156 571.265625 C 173.414062 570.425781 172.808594 569.570312 172.226562 568.699219 C 171.644531 567.828125 171.082031 566.941406 170.542969 566.042969 C 170.003906 565.144531 169.488281 564.234375 168.996094 563.3125 C 168.5 562.386719 168.027344 561.453125 167.582031 560.503906 C 167.132812 559.558594 166.707031 558.601562 166.304688 557.632812 C 165.902344 556.664062 165.527344 555.6875 165.171875 554.703125 C 164.820312 553.714844 164.488281 552.722656 164.183594 551.71875 C 163.878906 550.714844 163.597656 549.707031 163.34375 548.691406 C 163.089844 547.675781 162.859375 546.652344 162.652344 545.625 C 162.449219 544.597656 162.265625 543.566406 162.113281 542.53125 C 161.957031 541.492188 161.828125 540.453125 161.726562 539.410156 C 161.621094 538.367188 161.542969 537.324219 161.488281 536.277344 C 161.4375 535.230469 161.410156 534.183594 161.410156 533.136719 L 161.410156 297.167969 L 364.988281 413.328125 C 368.023438 415.054688 371.15625 416.578125 374.386719 417.902344 C 377.617188 419.222656 380.921875 420.332031 384.296875 421.226562 C 387.671875 422.121094 391.09375 422.792969 394.554688 423.242188 C 398.015625 423.695312 401.496094 423.917969 404.984375 423.917969 C 408.476562 423.917969 411.953125 423.695312 415.417969 423.242188 C 418.878906 422.792969 422.296875 422.121094 425.675781 421.226562 C 429.050781 420.332031 432.351562 419.222656 435.585938 417.902344 C 438.816406 416.578125 441.949219 415.054688 444.984375 413.328125 L 648.441406 296.195312 Z M 648.441406 533.136719 " fill-opacity="1" fill-rule="nonzero"/></g></svg>