<svg xmlns="http://www.w3.org/2000/svg" xmlns:xlink="http://www.w3.org/1999/xlink" width="1080" zoomAndPan="magnify" viewBox="0 0 810 1439.999935" height="1920" preserveAspectRatio="xMidYMid meet" version="1.0"><defs><clipPath id="574cd4a777"><path d="M 17.152344 10.144531 L 786.652344 10.144531 L 786.652344 1429 L 17.152344 1429 Z M 17.152344 10.144531 " clip-rule="nonzero"/></clipPath></defs><g clip-path="url(#574cd4a777)"><path fill="#5ccd55" d="M 721.316406 11.136719 C 722.808594 11.144531 724.300781 11.199219 725.789062 11.304688 C 728.578125 11.507812 731.355469 11.898438 734.097656 12.46875 C 737.613281 13.199219 741.066406 14.230469 744.40625 15.546875 C 747.992188 16.960938 751.445312 18.703125 754.714844 20.746094 C 758.058594 22.835938 761.210938 25.234375 764.109375 27.90625 C 767.378906 30.917969 770.335938 34.265625 772.910156 37.890625 C 775.320312 41.28125 777.398438 44.90625 779.101562 48.703125 C 780.804688 52.503906 782.128906 56.472656 783.054688 60.535156 C 783.703125 63.390625 784.15625 66.292969 784.40625 69.210938 C 784.546875 70.894531 784.625 72.589844 784.636719 74.28125 C 786.628906 504.5 786.632812 934.75 784.636719 1364.984375 C 784.625 1366.675781 784.546875 1368.367188 784.40625 1370.054688 C 784.15625 1372.972656 783.703125 1375.871094 783.054688 1378.726562 C 782.214844 1382.410156 781.046875 1386.019531 779.566406 1389.496094 C 777.929688 1393.328125 775.917969 1396.996094 773.566406 1400.433594 C 771.199219 1403.890625 768.492188 1407.117188 765.492188 1410.046875 C 762.492188 1412.980469 759.199219 1415.613281 755.679688 1417.902344 C 752.617188 1419.890625 749.382812 1421.617188 746.023438 1423.050781 C 742.546875 1424.535156 738.941406 1425.703125 735.257812 1426.542969 C 732.402344 1427.195312 729.503906 1427.644531 726.585938 1427.894531 C 724.902344 1428.039062 723.210938 1428.113281 721.519531 1428.125 C 508.5 1429.113281 295.46875 1429.113281 82.449219 1428.125 C 80.757812 1428.113281 79.066406 1428.039062 77.382812 1427.894531 C 74.464844 1427.644531 71.5625 1427.195312 68.710938 1426.542969 C 65.027344 1425.703125 61.421875 1424.535156 57.945312 1423.050781 C 53.882812 1421.316406 50.003906 1419.15625 46.386719 1416.617188 C 42.957031 1414.207031 39.765625 1411.457031 36.871094 1408.421875 C 34.066406 1405.476562 31.539062 1402.265625 29.34375 1398.835938 C 27.300781 1395.648438 25.542969 1392.28125 24.101562 1388.777344 C 22.710938 1385.402344 21.613281 1381.90625 20.828125 1378.339844 C 20.179688 1375.414062 19.742188 1372.441406 19.515625 1369.453125 C 19.402344 1367.96875 19.34375 1366.476562 19.332031 1364.988281 C 17.136719 934.761719 17.140625 504.519531 19.332031 74.285156 C 19.34375 72.796875 19.402344 71.304688 19.515625 69.820312 C 19.742188 66.832031 20.179688 63.859375 20.828125 60.933594 C 21.65625 57.175781 22.828125 53.496094 24.328125 49.957031 C 25.875 46.292969 27.769531 42.78125 29.972656 39.472656 C 32.230469 36.089844 34.808594 32.921875 37.667969 30.03125 C 40.527344 27.136719 43.660156 24.519531 47.015625 22.222656 C 50.34375 19.941406 53.890625 17.980469 57.589844 16.375 C 61.296875 14.765625 65.15625 13.515625 69.097656 12.644531 C 71.957031 12.011719 74.859375 11.578125 77.777344 11.347656 C 79.332031 11.222656 80.886719 11.160156 82.445312 11.148438 C 295.402344 10.136719 508.359375 10.808594 721.316406 11.148438 Z M 421.765625 1305.691406 L 382.058594 1305.691406 C 366.453125 1305.691406 353.785156 1318.367188 353.785156 1333.976562 L 353.785156 1373.699219 C 353.785156 1389.308594 366.453125 1401.980469 382.058594 1401.980469 L 421.765625 1401.980469 C 437.371094 1401.980469 450.039062 1389.308594 450.039062 1373.699219 L 450.039062 1333.976562 C 450.039062 1318.367188 437.371094 1305.691406 421.765625 1305.691406 Z M 414.328125 1323.730469 C 424.085938 1323.730469 432.007812 1331.65625 432.007812 1341.417969 L 432.007812 1366.257812 C 432.007812 1376.019531 424.085938 1383.941406 414.328125 1383.941406 L 389.496094 1383.941406 C 379.738281 1383.941406 371.816406 1376.019531 371.816406 1366.257812 L 371.816406 1341.417969 C 371.816406 1331.65625 379.738281 1323.730469 389.496094 1323.730469 Z M 762.289062 109.496094 L 41.820312 109.496094 C 41.234375 500.160156 39.929688 890.800781 41.496094 1281.484375 L 762.347656 1281.484375 C 763.105469 890.816406 764 500.179688 762.34375 109.496094 Z M 527.980469 49 L 275.847656 49 C 272.867188 49 270.449219 51.417969 270.449219 54.398438 L 270.449219 65.203125 C 270.449219 68.183594 272.867188 70.605469 275.847656 70.605469 L 527.980469 70.605469 C 530.960938 70.605469 533.378906 68.183594 533.378906 65.203125 L 533.378906 54.398438 C 533.378906 51.417969 530.960938 49 527.980469 49 Z M 527.980469 49 " fill-opacity="1" fill-rule="evenodd"/></g></svg>