<svg xmlns="http://www.w3.org/2000/svg" xmlns:xlink="http://www.w3.org/1999/xlink" width="500" zoomAndPan="magnify" viewBox="0 0 375 374.999991" height="500" preserveAspectRatio="xMidYMid meet" version="1.0"><defs><clipPath id="b34c0433ef"><path d="M 0 27.003906 L 375 27.003906 L 375 355.503906 L 0 355.503906 Z M 0 27.003906 " clip-rule="nonzero"/></clipPath></defs><g clip-path="url(#b34c0433ef)"><path stroke-linecap="butt" transform="matrix(0.935129, 0, 0, 0.935897, 0.00653161, 27.005752)" fill-opacity="1" fill="#ffffff" fill-rule="nonzero" stroke-linejoin="miter" d="M 0.49846 0.498884 L 400.501566 0.498884 L 400.501566 350.501329 L 0.49846 350.501329 Z M 0.49846 0.498884 " stroke="#cbcbcb" stroke-width="1" stroke-opacity="1" stroke-miterlimit="10"/></g><path fill="#f6f6f6" d="M 91.898438 168.535156 C 144.800781 168.535156 153.054688 282 174.4375 282 C 195.824219 282 205.261719 214.175781 235.5 214.175781 C 277.0625 214.175781 297.855469 336.835938 367.765625 336.835938 C 367.855469 336.835938 367.945312 336.835938 368.039062 336.835938 L 368.039062 33.269531 L 6.523438 33.269531 L 6.523438 314.597656 C 18.996094 268.890625 51.035156 168.535156 91.898438 168.535156 Z M 288.222656 76.101562 C 316.648438 76.101562 339.691406 99.160156 339.691406 127.613281 C 339.691406 156.058594 316.648438 179.121094 288.222656 179.121094 C 259.800781 179.121094 236.757812 156.058594 236.757812 127.613281 C 236.757812 99.160156 259.800781 76.101562 288.222656 76.101562 Z M 288.222656 76.101562 " fill-opacity="1" fill-rule="nonzero"/><path fill="#d1d2d2" d="M 368.035156 348.289062 L 368.035156 336.835938 C 367.945312 336.835938 367.855469 336.835938 367.761719 336.835938 C 297.851562 336.835938 277.066406 214.175781 235.5 214.175781 C 205.261719 214.175781 195.820312 282 174.433594 282 C 153.054688 282 144.800781 168.535156 91.898438 168.535156 C 51.03125 168.535156 18.992188 268.890625 6.519531 314.59375 L 6.519531 348.289062 Z M 368.035156 348.289062 " fill-opacity="1" fill-rule="nonzero"/><path fill="#d1d2d2" d="M 339.691406 127.609375 C 339.691406 129.296875 339.609375 130.976562 339.445312 132.65625 C 339.277344 134.335938 339.03125 136.003906 338.703125 137.65625 C 338.375 139.3125 337.964844 140.945312 337.476562 142.5625 C 336.988281 144.175781 336.417969 145.761719 335.773438 147.320312 C 335.128906 148.878906 334.410156 150.402344 333.613281 151.890625 C 332.820312 153.378906 331.953125 154.824219 331.019531 156.226562 C 330.082031 157.628906 329.078125 158.980469 328.007812 160.285156 C 326.941406 161.589844 325.808594 162.839844 324.617188 164.03125 C 323.425781 165.226562 322.179688 166.355469 320.875 167.425781 C 319.570312 168.496094 318.21875 169.5 316.816406 170.4375 C 315.417969 171.375 313.972656 172.242188 312.484375 173.035156 C 311 173.832031 309.476562 174.550781 307.917969 175.199219 C 306.363281 175.84375 304.777344 176.410156 303.164062 176.902344 C 301.550781 177.390625 299.917969 177.800781 298.265625 178.128906 C 296.613281 178.457031 294.945312 178.707031 293.269531 178.871094 C 291.589844 179.035156 289.910156 179.117188 288.222656 179.117188 C 286.539062 179.117188 284.855469 179.035156 283.179688 178.871094 C 281.5 178.707031 279.835938 178.457031 278.183594 178.128906 C 276.53125 177.800781 274.894531 177.390625 273.28125 176.902344 C 271.671875 176.410156 270.085938 175.84375 268.527344 175.199219 C 266.96875 174.550781 265.449219 173.832031 263.960938 173.035156 C 262.476562 172.242188 261.03125 171.375 259.628906 170.4375 C 258.226562 169.5 256.875 168.496094 255.574219 167.425781 C 254.269531 166.355469 253.023438 165.226562 251.828125 164.03125 C 250.636719 162.839844 249.507812 161.589844 248.4375 160.285156 C 247.367188 158.980469 246.367188 157.628906 245.429688 156.226562 C 244.492188 154.824219 243.628906 153.378906 242.832031 151.890625 C 242.039062 150.402344 241.316406 148.878906 240.671875 147.320312 C 240.027344 145.761719 239.460938 144.175781 238.972656 142.5625 C 238.480469 140.945312 238.074219 139.3125 237.742188 137.65625 C 237.414062 136.003906 237.167969 134.335938 237.003906 132.65625 C 236.835938 130.976562 236.753906 129.296875 236.753906 127.609375 C 236.753906 125.921875 236.835938 124.238281 237.003906 122.558594 C 237.167969 120.878906 237.414062 119.214844 237.742188 117.558594 C 238.074219 115.902344 238.480469 114.269531 238.972656 112.65625 C 239.460938 111.039062 240.027344 109.453125 240.671875 107.894531 C 241.316406 106.335938 242.039062 104.8125 242.832031 103.324219 C 243.628906 101.839844 244.492188 100.394531 245.429688 98.992188 C 246.367188 97.585938 247.367188 96.234375 248.4375 94.929688 C 249.507812 93.625 250.636719 92.378906 251.828125 91.183594 C 253.023438 89.992188 254.269531 88.859375 255.574219 87.789062 C 256.875 86.71875 258.226562 85.714844 259.628906 84.777344 C 261.03125 83.839844 262.476562 82.976562 263.960938 82.179688 C 265.449219 81.382812 266.96875 80.664062 268.527344 80.019531 C 270.085938 79.371094 271.671875 78.804688 273.28125 78.316406 C 274.894531 77.824219 276.53125 77.417969 278.183594 77.085938 C 279.835938 76.757812 281.5 76.511719 283.179688 76.34375 C 284.855469 76.179688 286.539062 76.097656 288.222656 76.097656 C 289.910156 76.097656 291.589844 76.179688 293.269531 76.34375 C 294.945312 76.511719 296.613281 76.757812 298.265625 77.085938 C 299.917969 77.417969 301.550781 77.824219 303.164062 78.316406 C 304.777344 78.804688 306.363281 79.371094 307.917969 80.019531 C 309.476562 80.664062 311 81.382812 312.484375 82.179688 C 313.972656 82.976562 315.417969 83.839844 316.816406 84.777344 C 318.21875 85.714844 319.570312 86.71875 320.875 87.789062 C 322.179688 88.859375 323.425781 89.992188 324.617188 91.183594 C 325.808594 92.378906 326.941406 93.625 328.007812 94.929688 C 329.078125 96.234375 330.082031 97.585938 331.019531 98.992188 C 331.953125 100.394531 332.820312 101.839844 333.613281 103.324219 C 334.410156 104.8125 335.128906 106.335938 335.773438 107.894531 C 336.417969 109.453125 336.988281 111.039062 337.476562 112.65625 C 337.964844 114.269531 338.375 115.902344 338.703125 117.558594 C 339.03125 119.214844 339.277344 120.878906 339.445312 122.558594 C 339.609375 124.238281 339.691406 125.921875 339.691406 127.609375 Z M 339.691406 127.609375 " fill-opacity="1" fill-rule="nonzero"/></svg>