<svg xmlns="http://www.w3.org/2000/svg" xmlns:xlink="http://www.w3.org/1999/xlink" width="1080" zoomAndPan="magnify" viewBox="0 0 810 809.999993" height="1080" preserveAspectRatio="xMidYMid meet" version="1.0"><defs><clipPath id="265a06879f"><path d="M 13.5 13.5 L 796.5 13.5 L 796.5 796.5 L 13.5 796.5 Z M 13.5 13.5 " clip-rule="nonzero"/></clipPath></defs><path fill="#ffffff" d="M 507.246094 180.0625 L 303.085938 180.0625 C 235.472656 180.0625 180.390625 235.140625 180.390625 302.753906 L 180.390625 506.914062 C 180.390625 574.527344 235.472656 629.609375 303.085938 629.609375 L 507.246094 629.609375 C 574.859375 629.609375 629.9375 574.527344 629.9375 506.914062 L 629.9375 303.085938 C 629.9375 235.140625 574.859375 180.0625 507.246094 180.0625 Z M 591.351562 507.246094 C 591.351562 553.75 553.75 591.351562 507.246094 591.351562 L 303.085938 591.351562 C 256.578125 591.351562 218.648438 553.75 218.648438 507.246094 L 218.648438 303.085938 C 218.648438 256.578125 256.578125 218.648438 303.085938 218.648438 L 507.246094 218.648438 C 553.75 218.648438 591.351562 256.25 591.351562 303.085938 Z M 591.351562 507.246094 " fill-opacity="1" fill-rule="nonzero"/><path fill="#ffffff" d="M 555.398438 281.976562 C 555.398438 297.148438 543.195312 309.679688 527.695312 309.679688 C 512.523438 309.679688 499.988281 297.476562 499.988281 281.976562 C 499.988281 266.804688 512.191406 254.269531 527.695312 254.269531 C 543.195312 254.601562 555.398438 266.804688 555.398438 281.976562 Z M 555.398438 281.976562 " fill-opacity="1" fill-rule="nonzero"/><path fill="#ffffff" d="M 405 290.550781 C 342.003906 290.550781 290.550781 342.003906 290.550781 405 C 290.550781 467.996094 342.003906 519.449219 405 519.449219 C 467.996094 519.449219 519.449219 467.996094 519.449219 405 C 519.449219 342.003906 468.324219 290.550781 405 290.550781 Z M 405 480.859375 C 363.113281 480.859375 329.140625 446.886719 329.140625 405 C 329.140625 363.113281 363.113281 329.140625 405 329.140625 C 446.886719 329.140625 480.859375 363.113281 480.859375 405 C 480.859375 446.886719 446.886719 480.859375 405 480.859375 Z M 405 480.859375 " fill-opacity="1" fill-rule="nonzero"/><g clip-path="url(#265a06879f)"><path fill="#ffffff" d="M 405 796.5 C 189.296875 796.5 13.5 621.035156 13.5 405 C 13.5 189.296875 189.296875 13.5 405 13.5 C 621.035156 13.5 796.5 189.296875 796.5 405 C 796.5 621.035156 621.035156 796.5 405 796.5 Z M 405 34.9375 C 200.839844 34.9375 34.9375 200.839844 34.9375 405 C 34.9375 609.160156 200.839844 775.0625 405 775.0625 C 609.160156 775.0625 775.0625 609.160156 775.0625 405 C 775.0625 200.839844 609.160156 34.9375 405 34.9375 Z M 405 34.9375 " fill-opacity="1" fill-rule="nonzero"/></g></svg>