<svg xmlns="http://www.w3.org/2000/svg" xmlns:xlink="http://www.w3.org/1999/xlink" width="1080" zoomAndPan="magnify" viewBox="0 0 810 809.999993" height="1080" preserveAspectRatio="xMidYMid meet" version="1.0"><defs><clipPath id="9b9327ca4d"><path d="M 16.578125 16.578125 L 789 16.578125 L 789 790 L 16.578125 790 Z M 16.578125 16.578125 " clip-rule="nonzero"/></clipPath></defs><g clip-path="url(#9b9327ca4d)"><path fill="#ffffff" d="M 515.996094 584.753906 L 706.304688 775 C 725.148438 793.835938 755.746094 793.832031 774.589844 774.988281 C 793.425781 756.140625 793.421875 725.542969 774.578125 706.699219 L 584.394531 516.585938 C 622.652344 464.546875 645.269531 400.285156 645.269531 330.777344 C 645.269531 157.363281 504.480469 16.578125 331.066406 16.578125 C 157.652344 16.578125 16.867188 157.363281 16.867188 330.777344 C 16.867188 504.191406 157.652344 644.980469 331.066406 644.980469 C 400.175781 644.980469 464.097656 622.625 515.996094 584.753906 Z M 331.066406 113.148438 C 451.179688 113.148438 548.703125 210.664062 548.703125 330.777344 C 548.703125 450.890625 451.179688 548.414062 331.066406 548.414062 C 210.953125 548.414062 113.4375 450.890625 113.4375 330.777344 C 113.4375 210.664062 210.953125 113.148438 331.066406 113.148438 Z M 331.066406 113.148438 " fill-opacity="1" fill-rule="evenodd"/></g></svg>