<svg xmlns="http://www.w3.org/2000/svg" xmlns:xlink="http://www.w3.org/1999/xlink" width="500" zoomAndPan="magnify" viewBox="0 0 375 374.999991" height="500" preserveAspectRatio="xMidYMid meet" version="1.0"><path fill="#88ccf1" d="M 375 187.496094 C 375 291.050781 291.050781 375 187.496094 375 C 83.949219 375 0 291.050781 0 187.496094 C 0 83.945312 83.949219 0 187.496094 0 C 291.050781 0 375 83.945312 375 187.496094 " fill-opacity="1" fill-rule="nonzero"/><path fill="#ffffff" d="M 198.8125 198.761719 C 179.042969 218.527344 146.996094 218.527344 127.226562 198.761719 C 107.539062 179.074219 107.539062 147.023438 127.28125 127.226562 C 147.019531 107.539062 179.019531 107.539062 198.730469 127.253906 C 218.527344 147.050781 218.527344 179.050781 198.8125 198.761719 Z M 103.445312 103.390625 C 70.519531 136.375 70.519531 189.726562 103.390625 222.597656 C 132.222656 251.429688 176.722656 255.03125 209.488281 233.300781 L 272.421875 296.230469 L 296.257812 272.394531 L 233.351562 209.4375 C 255.003906 176.8125 251.425781 132.28125 222.59375 103.390625 C 189.722656 70.574219 136.347656 70.550781 103.445312 103.390625 " fill-opacity="1" fill-rule="nonzero"/></svg>