<svg xmlns="http://www.w3.org/2000/svg" xmlns:xlink="http://www.w3.org/1999/xlink" width="500" zoomAndPan="magnify" viewBox="0 0 375 374.999991" height="500" preserveAspectRatio="xMidYMid meet" version="1.0"><defs><clipPath id="3fea73112f"><path d="M 13.253906 13.253906 L 365.003906 13.253906 L 365.003906 365.003906 L 13.253906 365.003906 Z M 13.253906 13.253906 " clip-rule="nonzero"/></clipPath></defs><g clip-path="url(#3fea73112f)"><path fill="#1877f2" d="M 189.042969 13.253906 C 91.871094 13.253906 13.253906 91.957031 13.253906 189.128906 C 13.253906 286.300781 91.871094 365.003906 189.042969 365.003906 C 286.210938 365.003906 365.003906 286.300781 365.003906 189.128906 C 365.003906 91.957031 286.210938 13.253906 189.042969 13.253906 Z M 189.128906 329.828125 C 111.394531 329.828125 48.429688 266.867188 48.429688 189.128906 C 48.429688 111.394531 111.394531 48.429688 189.128906 48.429688 C 266.867188 48.429688 329.828125 111.394531 329.828125 189.128906 C 329.828125 266.867188 266.867188 329.828125 189.128906 329.828125 Z M 189.128906 329.828125 " fill-opacity="1" fill-rule="nonzero"/></g><path fill="#1877f2" d="M 197.921875 101.191406 L 171.542969 101.191406 L 171.542969 206.71875 L 263.789062 262.117188 L 277.066406 240.484375 L 197.921875 193.527344 Z M 197.921875 101.191406 " fill-opacity="1" fill-rule="nonzero"/></svg>