<svg xmlns="http://www.w3.org/2000/svg" xmlns:xlink="http://www.w3.org/1999/xlink" width="500" zoomAndPan="magnify" viewBox="0 0 375 374.999991" height="500" preserveAspectRatio="xMidYMid meet" version="1.0"><path fill="#ff47f9" d="M 241.109375 28.972656 C 255.992188 41.847656 269.804688 55.785156 282.546875 70.78125 C 294.070312 84.976562 304.484375 99.816406 318.546875 111.691406 C 330.089844 121.445312 346.882812 104.804688 335.242188 94.980469 C 321.183594 83.105469 310.769531 68.261719 299.246094 54.070312 C 286.503906 39.074219 272.695312 25.136719 257.8125 12.261719 C 246.566406 2.074219 229.816406 18.738281 241.109375 28.972656 Z M 241.109375 28.972656 " fill-opacity="1" fill-rule="nonzero"/><path fill="#ff47f9" d="M 320.636719 12.007812 C 296.507812 43.152344 269.183594 71.171875 238.660156 96.070312 C 226.878906 105.6875 243.671875 122.332031 255.359375 112.785156 C 285.875 87.882812 313.199219 59.863281 337.328125 28.71875 C 346.535156 16.84375 329.941406 0 320.636719 12.007812 Z M 320.636719 12.007812 " fill-opacity="1" fill-rule="nonzero"/><path fill="#01c3dc" d="M 116.214844 350.914062 C 114.695312 357.871094 112.015625 364.988281 106.402344 369.375 C 99.238281 374.96875 89.269531 374.707031 80.191406 374.023438 C 69.773438 373.261719 58.804688 372.160156 50.226562 366.199219 C 46.96875 363.789062 44.148438 360.941406 41.765625 357.664062 C 39.386719 354.382812 37.550781 350.820312 36.265625 346.976562 C 35.15625 344.066406 34.339844 341.078125 33.816406 338.011719 C 33.296875 334.941406 33.078125 331.851562 33.164062 328.738281 C 33.253906 325.628906 33.644531 322.554688 34.339844 319.519531 C 35.03125 316.484375 36.015625 313.550781 37.289062 310.710938 C 48.542969 287.304688 79.144531 282.480469 100.378906 295.027344 C 103.089844 296.476562 105.542969 298.277344 107.738281 300.425781 C 109.9375 302.574219 111.789062 304.988281 113.304688 307.664062 C 115.441406 312.097656 116.777344 316.765625 117.316406 321.660156 C 118.710938 331.476562 118.34375 341.230469 116.214844 350.914062 Z M 116.214844 350.914062 " fill-opacity="1" fill-rule="nonzero"/><path fill="#ffb100" d="M 194.257812 56.550781 L 133.296875 56.550781 C 121.488281 56.550781 121.457031 74.933594 133.296875 74.933594 L 194.257812 74.933594 C 206.066406 74.933594 206.097656 56.550781 194.257812 56.550781 Z M 194.257812 56.550781 " fill-opacity="1" fill-rule="nonzero"/><path fill="#ffb100" d="M 78.34375 52.644531 C 76.519531 52.625 74.699219 52.703125 72.882812 52.882812 C 71.066406 53.0625 69.265625 53.339844 67.480469 53.714844 C 65.695312 54.09375 63.9375 54.566406 62.203125 55.132812 C 60.46875 55.703125 58.773438 56.367188 57.109375 57.121094 C 55.449219 57.875 53.835938 58.71875 52.265625 59.652344 C 50.695312 60.585938 49.183594 61.597656 47.726562 62.695312 C 46.269531 63.796875 44.875 64.96875 43.542969 66.21875 C 42.214844 67.46875 40.957031 68.789062 39.773438 70.179688 C 28.632812 83.363281 27.578125 100.140625 28.492188 116.695312 C 29.128906 128.460938 47.5 128.539062 46.855469 116.695312 C 46.253906 105.574219 45.546875 93.28125 52.367188 83.753906 C 53.867188 81.734375 55.585938 79.917969 57.519531 78.308594 C 59.453125 76.699219 61.550781 75.339844 63.8125 74.234375 C 66.070312 73.125 68.429688 72.300781 70.886719 71.761719 C 73.34375 71.21875 75.828125 70.972656 78.34375 71.027344 C 90.164062 71.046875 90.183594 52.664062 78.34375 52.644531 Z M 78.34375 52.644531 " fill-opacity="1" fill-rule="nonzero"/><path fill="#ffb100" d="M 35.574219 164.980469 C 36.601562 180.71875 39.640625 195.421875 52.402344 205.882812 C 65.210938 216.367188 81.84375 218.449219 97.8125 216.546875 C 109.402344 215.164062 109.542969 196.765625 97.8125 198.164062 C 87.105469 199.441406 75.597656 199.570312 66.261719 193.347656 C 56.410156 186.78125 54.664062 176.054688 53.929688 164.988281 C 53.160156 153.242188 34.789062 153.167969 35.5625 164.988281 Z M 35.574219 164.980469 " fill-opacity="1" fill-rule="nonzero"/><path fill="#ffb100" d="M 152.722656 209.441406 L 212.34375 208.824219 C 224.152344 208.699219 224.1875 190.316406 212.34375 190.441406 L 152.722656 191.0625 C 140.914062 191.183594 140.878906 209.5625 152.722656 209.441406 Z M 152.722656 209.441406 " fill-opacity="1" fill-rule="nonzero"/><path fill="#ffb100" d="M 268.890625 205.882812 C 279.191406 207.527344 290.101562 210.710938 298.332031 217.449219 C 306.492188 224.128906 306.4375 235.460938 308.140625 245.144531 C 310.183594 256.773438 327.886719 251.84375 325.851562 240.257812 C 323.46875 226.683594 322.273438 214.019531 311.320312 204.449219 C 305.929688 200.0625 300.046875 196.484375 293.667969 193.71875 C 287.292969 190.953125 280.660156 189.105469 273.773438 188.167969 C 262.207031 186.332031 257.242188 204.039062 268.890625 205.894531 Z M 268.890625 205.882812 " fill-opacity="1" fill-rule="nonzero"/><path fill="#ffb100" d="M 306.804688 289.96875 C 304.035156 299.050781 301.109375 308.65625 294.792969 315.996094 C 288.234375 323.628906 278.953125 325.859375 269.289062 326.859375 C 257.652344 328.0625 257.523438 346.457031 269.289062 345.242188 C 282.859375 343.835938 295.816406 340.902344 305.863281 331.027344 C 315.773438 321.285156 320.558594 307.84375 324.515625 294.855469 C 327.96875 283.515625 310.25 278.667969 306.804688 289.96875 Z M 306.804688 289.96875 " fill-opacity="1" fill-rule="nonzero"/><path fill="#ffb100" d="M 213.035156 329.105469 C 194.023438 328.148438 175.035156 328.4375 156.0625 329.972656 C 144.363281 330.917969 144.253906 349.308594 156.0625 348.351562 C 175.035156 346.820312 194.023438 346.53125 213.035156 347.488281 C 224.84375 348.082031 224.820312 329.695312 213.035156 329.105469 Z M 213.035156 329.105469 " fill-opacity="1" fill-rule="nonzero"/></svg>