<svg xmlns="http://www.w3.org/2000/svg" xmlns:xlink="http://www.w3.org/1999/xlink" width="500" zoomAndPan="magnify" viewBox="0 0 375 374.999991" height="500" preserveAspectRatio="xMidYMid meet" version="1.0"><path fill="#03a8e8" d="M 375.023438 187.488281 C 375.023438 187.929688 375.023438 188.417969 374.992188 188.867188 C 374.933594 198.105469 374.210938 207.1875 372.824219 216.070312 C 366.296875 258.964844 345.238281 297.046875 314.828125 325.148438 L 314.796875 325.148438 C 281.34375 356.101562 236.609375 375.023438 187.488281 375.023438 C 163.449219 375.023438 140.464844 370.511719 119.378906 362.234375 C 116.765625 361.246094 114.171875 360.160156 111.609375 359.023438 C 75.933594 343.222656 46.148438 316.636719 26.324219 283.359375 C 16.375 266.636719 8.910156 248.222656 4.515625 228.671875 C 1.539062 215.40625 -0.0234375 201.621094 -0.0234375 187.488281 C -0.0234375 182.527344 0.160156 177.617188 0.582031 172.78125 C 3.742188 131.648438 20.199219 94.253906 45.648438 64.867188 C 55.445312 53.546875 66.578125 43.410156 78.800781 34.71875 L 78.828125 34.691406 C 82.136719 32.351562 85.53125 30.0625 89.023438 27.929688 C 110.324219 14.75 134.445312 5.691406 160.289062 1.929688 C 169.164062 0.632812 178.25 -0.0234375 187.488281 -0.0234375 C 209.503906 -0.0234375 230.679688 3.792969 250.296875 10.777344 C 282.007812 22.027344 309.742188 41.578125 330.980469 66.785156 C 358.484375 99.40625 375.023438 141.519531 375.023438 187.488281 " fill-opacity="1" fill-rule="nonzero"/><path fill="#70c573" d="M 212.539062 334.246094 C 212.539062 334.246094 202.328125 320.003906 203.464844 295.585938 C 204.59375 271.171875 202.328125 267.101562 186.453125 262.015625 C 170.582031 256.929688 154.699219 247.765625 152.433594 235.5625 C 150.164062 223.347656 163.773438 194.863281 163.773438 194.863281 C 163.773438 194.863281 181.921875 182.660156 197.796875 184.691406 C 213.667969 186.726562 240.890625 186.726562 253.363281 197.921875 C 265.839844 209.105469 273.769531 234.542969 279.441406 235.5625 C 285.109375 236.578125 271.503906 280.324219 269.234375 287.449219 C 266.96875 294.566406 260.167969 323.058594 254.5 334.246094 C 248.828125 345.4375 243.15625 355.613281 238.617188 355.613281 C 234.085938 355.613281 213.667969 357.652344 212.539062 334.246094 " fill-opacity="1" fill-rule="nonzero"/><path fill="#70c573" d="M 124.425781 331.921875 C 123.4375 336.726562 121.667969 349.515625 119.378906 362.234375 C 116.765625 361.246094 114.171875 360.160156 111.609375 359.023438 C 75.933594 343.222656 46.148438 316.636719 26.324219 283.359375 C 16.375 266.636719 8.910156 248.222656 4.515625 228.671875 C 11.433594 224.996094 20.101562 221.6875 28.613281 221.84375 C 47.265625 222.203125 49.613281 226.789062 65.496094 238.183594 C 81.347656 249.589844 93.773438 278.042969 100.484375 278.53125 C 107.1875 278.980469 126.148438 323.371094 124.425781 331.921875 " fill-opacity="1" fill-rule="nonzero"/><path fill="#70c573" d="M 375.023438 187.488281 C 375.023438 187.929688 375.023438 188.417969 374.992188 188.867188 C 374.933594 198.105469 374.210938 207.1875 372.824219 216.070312 C 364.40625 203.703125 355.316406 185.140625 350.6875 181.890625 C 343.554688 176.863281 317.417969 173.859375 326.921875 186.914062 C 336.429688 200.003906 340.457031 200.003906 340.457031 200.003906 C 340.457031 200.003906 322.167969 236.824219 309.113281 233.25 C 296.03125 229.699219 269.886719 181.890625 269.886719 181.890625 C 254.445312 169.738281 284.144531 160.777344 284.144531 160.777344 C 284.144531 160.777344 293.652344 152.46875 279.386719 142.960938 C 265.128906 133.457031 254.445312 153.644531 244.945312 151.265625 C 235.441406 148.886719 233.058594 158.390625 230.082031 167.898438 C 227.105469 177.402344 218.4375 183.09375 216.421875 167.898438 C 214.378906 152.707031 192.65625 161.980469 185.53125 161.980469 C 178.398438 161.980469 164.140625 186.914062 151.050781 186.914062 C 137.996094 186.914062 137.996094 169.105469 140.375 160.777344 C 142.753906 152.46875 162.9375 144.132812 181.949219 142.960938 C 200.960938 141.761719 183.152344 125.121094 189.082031 121.902344 C 195.035156 118.652344 212.851562 123.949219 230.082031 131.078125 C 247.292969 138.210938 265.128906 121.570312 280.589844 121.902344 C 296.03125 122.234375 247.324219 109.691406 262.753906 97.804688 C 278.222656 85.921875 244.945312 75.21875 246.117188 62.15625 C 247.324219 49.074219 236.609375 33.636719 236.609375 19.378906 C 236.609375 14.835938 241.667969 11.882812 250.296875 10.777344 C 282.007812 22.027344 309.742188 41.578125 330.980469 66.785156 C 358.484375 99.40625 375.023438 141.519531 375.023438 187.488281 " fill-opacity="1" fill-rule="nonzero"/><path fill="#70c573" d="M 109.558594 124.09375 C 109.558594 124.09375 116.445312 132.230469 121.753906 124.09375 C 127.070312 115.953125 127.824219 109.460938 124.5 108.878906 C 121.164062 108.28125 101.390625 120.707031 109.558594 124.09375 " fill-opacity="1" fill-rule="nonzero"/><path fill="#70c573" d="M 69.429688 124.09375 C 69.429688 124.09375 83.589844 120.476562 86.734375 113.398438 C 89.886719 106.308594 107.984375 109.460938 112.703125 102.375 C 117.429688 95.292969 129.648438 92.769531 132.59375 86.160156 C 135.523438 79.558594 138.722656 69.332031 126.503906 68.535156 C 114.28125 67.753906 102.234375 62.253906 102.359375 68.535156 C 102.476562 74.839844 99.332031 73.261719 88.316406 77.195312 C 77.300781 81.132812 65.496094 75.453125 65.496094 86.160156 C 65.496094 96.875 68.648438 108.847656 68.648438 108.847656 C 68.648438 108.847656 62.347656 117.488281 69.429688 124.09375 " fill-opacity="1" fill-rule="nonzero"/><path fill="#70c573" d="M 160.289062 1.929688 C 160.289062 1.929688 139.203125 30.089844 135.289062 30.84375 C 131.351562 31.589844 119.289062 39.859375 117.058594 48.144531 C 114.808594 56.421875 99.007812 61.675781 86.980469 56.421875 C 74.945312 51.148438 72.175781 45.34375 78.800781 34.71875 L 78.828125 34.691406 C 82.136719 32.351562 85.53125 30.0625 89.023438 27.929688 C 110.324219 14.75 134.445312 5.691406 160.289062 1.929688 " fill-opacity="1" fill-rule="nonzero"/><path fill="#70c573" d="M 42.097656 112.578125 C 40.101562 118.59375 40.589844 125.609375 34.09375 127.707031 C 27.558594 129.816406 30.0625 137.636719 25.550781 147.65625 C 21.488281 156.683594 4.074219 170.160156 0.582031 172.78125 C 3.742188 131.648438 20.199219 94.253906 45.648438 64.867188 C 48.292969 72.898438 47.265625 86.160156 49.613281 90.492188 C 53.132812 97.019531 44.105469 106.558594 42.097656 112.578125 " fill-opacity="1" fill-rule="nonzero"/></svg>