<svg xmlns="http://www.w3.org/2000/svg" xmlns:xlink="http://www.w3.org/1999/xlink" width="500" zoomAndPan="magnify" viewBox="0 0 375 374.999991" height="500" preserveAspectRatio="xMidYMid meet" version="1.0"><defs><g/><clipPath id="884e787c4d"><path d="M 13.53125 114.601562 L 124.53125 114.601562 L 124.53125 230.101562 L 13.53125 230.101562 Z M 13.53125 114.601562 " clip-rule="nonzero"/></clipPath></defs><g clip-path="url(#884e787c4d)"><path fill="#7ed957" d="M 18.738281 195.511719 C 18.511719 195.582031 18.277344 195.617188 18.050781 195.617188 C 17.066406 195.617188 16.152344 194.984375 15.839844 193.992188 C 14.304688 189.070312 13.53125 183.929688 13.53125 178.722656 C 13.53125 165 18.878906 152.097656 28.59375 142.394531 C 37.582031 133.417969 49.308594 128.175781 61.890625 127.441406 L 53 118.554688 C 52.09375 117.652344 52.09375 116.1875 53 115.289062 C 53.902344 114.386719 55.367188 114.386719 56.269531 115.289062 L 69.019531 128.023438 C 69.453125 128.457031 69.695312 129.042969 69.695312 129.65625 C 69.695312 130.269531 69.453125 130.855469 69.019531 131.289062 L 56.269531 144.023438 C 55.816406 144.472656 55.226562 144.699219 54.632812 144.699219 C 54.042969 144.699219 53.449219 144.472656 53 144.023438 C 52.09375 143.121094 52.097656 141.660156 53 140.757812 L 61.6875 132.082031 C 37.398438 133.765625 18.15625 154.039062 18.15625 178.71875 C 18.15625 183.460938 18.863281 188.140625 20.261719 192.621094 C 20.640625 193.835938 19.957031 195.132812 18.738281 195.511719 Z M 94.8125 214.730469 C 86.445312 221.65625 75.84375 225.472656 64.960938 225.472656 C 57.363281 225.472656 49.820312 223.613281 43.148438 220.097656 C 37.519531 217.128906 32.5 212.984375 28.492188 208.023438 L 40.402344 208.023438 C 41.675781 208.023438 42.714844 206.988281 42.714844 205.710938 C 42.714844 204.4375 41.675781 203.402344 40.402344 203.402344 L 22.371094 203.402344 C 21.09375 203.402344 20.058594 204.4375 20.058594 205.710938 L 20.058594 223.722656 C 20.058594 224.996094 21.09375 226.03125 22.371094 226.03125 C 23.648438 226.03125 24.683594 224.996094 24.683594 223.722656 L 24.683594 210.65625 C 29.117188 216.222656 34.707031 220.867188 40.992188 224.179688 C 48.328125 228.046875 56.613281 230.089844 64.960938 230.089844 C 76.921875 230.089844 88.570312 225.898438 97.761719 218.285156 C 98.746094 217.472656 98.882812 216.015625 98.066406 215.035156 C 97.253906 214.050781 95.792969 213.917969 94.8125 214.730469 Z M 124.46875 202.464844 C 124.175781 201.222656 122.929688 200.453125 121.6875 200.746094 L 110.023438 203.488281 C 114.191406 195.925781 116.386719 187.414062 116.386719 178.722656 C 116.386719 167.636719 112.910156 157.082031 106.328125 148.199219 C 99.878906 139.488281 91.039062 133.136719 80.773438 129.824219 C 79.554688 129.433594 78.253906 130.101562 77.863281 131.3125 C 77.46875 132.527344 78.136719 133.828125 79.351562 134.21875 C 88.695312 137.234375 96.738281 143.015625 102.609375 150.945312 C 108.597656 159.03125 111.761719 168.636719 111.761719 178.722656 C 111.761719 186.789062 109.6875 194.683594 105.753906 201.65625 L 102.785156 189.0625 C 102.492188 187.820312 101.246094 187.054688 100.003906 187.34375 C 98.757812 187.636719 97.988281 188.878906 98.28125 190.125 L 102.414062 207.65625 C 102.664062 208.71875 103.613281 209.4375 104.664062 209.4375 C 104.839844 209.4375 105.015625 209.414062 105.195312 209.375 L 122.746094 205.246094 C 123.992188 204.949219 124.761719 203.703125 124.46875 202.464844 Z M 124.46875 202.464844 " fill-opacity="1" fill-rule="nonzero"/></g><g fill="#ffffff" fill-opacity="1"><g transform="translate(26.834914, 217.580164)"><g><path d="M 4.40625 -35.765625 C 4.40625 -42.734375 5.972656 -49 9.109375 -54.5625 C 12.253906 -60.132812 16.539062 -64.488281 21.96875 -67.625 C 27.40625 -70.769531 33.4375 -72.34375 40.0625 -72.34375 C 47.851562 -72.34375 54.648438 -70.460938 60.453125 -66.703125 C 66.265625 -62.953125 70.5 -57.625 73.15625 -50.71875 L 62 -50.71875 C 60.007812 -55.019531 57.15625 -58.332031 53.4375 -60.65625 C 49.71875 -62.976562 45.257812 -64.140625 40.0625 -64.140625 C 35.070312 -64.140625 30.597656 -62.976562 26.640625 -60.65625 C 22.679688 -58.332031 19.570312 -55.035156 17.3125 -50.765625 C 15.0625 -46.503906 13.9375 -41.503906 13.9375 -35.765625 C 13.9375 -30.085938 15.0625 -25.113281 17.3125 -20.84375 C 19.570312 -16.582031 22.679688 -13.289062 26.640625 -10.96875 C 30.597656 -8.644531 35.070312 -7.484375 40.0625 -7.484375 C 45.257812 -7.484375 49.71875 -8.625 53.4375 -10.90625 C 57.15625 -13.195312 60.007812 -16.492188 62 -20.796875 L 73.15625 -20.796875 C 70.5 -13.960938 66.265625 -8.6875 60.453125 -4.96875 C 54.648438 -1.25 47.851562 0.609375 40.0625 0.609375 C 33.4375 0.609375 27.40625 -0.941406 21.96875 -4.046875 C 16.539062 -7.148438 12.253906 -11.46875 9.109375 -17 C 5.972656 -22.539062 4.40625 -28.796875 4.40625 -35.765625 Z M 4.40625 -35.765625 "/></g></g></g><g fill="#ffffff" fill-opacity="1"><g transform="translate(105.938651, 217.580164)"><g><path d="M 57.6875 -56.15625 L 57.6875 0 L 48.359375 0 L 48.359375 -8.296875 C 46.585938 -5.429688 44.113281 -3.195312 40.9375 -1.59375 C 37.757812 0.0078125 34.257812 0.8125 30.4375 0.8125 C 26.0625 0.8125 22.128906 -0.0859375 18.640625 -1.890625 C 15.160156 -3.703125 12.410156 -6.414062 10.390625 -10.03125 C 8.378906 -13.65625 7.375 -18.066406 7.375 -23.265625 L 7.375 -56.15625 L 16.59375 -56.15625 L 16.59375 -24.484375 C 16.59375 -18.953125 17.992188 -14.703125 20.796875 -11.734375 C 23.597656 -8.765625 27.425781 -7.28125 32.28125 -7.28125 C 37.269531 -7.28125 41.195312 -8.816406 44.0625 -11.890625 C 46.925781 -14.960938 48.359375 -19.4375 48.359375 -25.3125 L 48.359375 -56.15625 Z M 57.6875 -56.15625 "/></g></g></g><g fill="#ffffff" fill-opacity="1"><g transform="translate(171.516884, 217.580164)"><g><path d="M 17.21875 -47.03125 C 18.851562 -50.238281 21.191406 -52.726562 24.234375 -54.5 C 27.273438 -56.28125 30.984375 -57.171875 35.359375 -57.171875 L 35.359375 -47.546875 L 32.890625 -47.546875 C 22.441406 -47.546875 17.21875 -41.875 17.21875 -30.53125 L 17.21875 0 L 7.890625 0 L 7.890625 -56.15625 L 17.21875 -56.15625 Z M 17.21875 -47.03125 "/></g></g></g><g fill="#ffffff" fill-opacity="1"><g transform="translate(209.736704, 217.580164)"><g><path d="M 17.21875 -45.703125 C 19.125 -49.046875 21.921875 -51.773438 25.609375 -53.890625 C 29.304688 -56.015625 33.507812 -57.078125 38.21875 -57.078125 C 43.269531 -57.078125 47.8125 -55.878906 51.84375 -53.484375 C 55.875 -51.097656 59.050781 -47.734375 61.375 -43.390625 C 63.695312 -39.054688 64.859375 -34.019531 64.859375 -28.28125 C 64.859375 -22.613281 63.695312 -17.554688 61.375 -13.109375 C 59.050781 -8.671875 55.859375 -5.222656 51.796875 -2.765625 C 47.734375 -0.304688 43.207031 0.921875 38.21875 0.921875 C 33.375 0.921875 29.125 -0.132812 25.46875 -2.25 C 21.8125 -4.375 19.0625 -7.070312 17.21875 -10.34375 L 17.21875 0 L 7.890625 0 L 7.890625 -75.828125 L 17.21875 -75.828125 Z M 55.328125 -28.28125 C 55.328125 -32.519531 54.472656 -36.207031 52.765625 -39.34375 C 51.054688 -42.488281 48.75 -44.878906 45.84375 -46.515625 C 42.945312 -48.160156 39.757812 -48.984375 36.28125 -48.984375 C 32.863281 -48.984375 29.703125 -48.144531 26.796875 -46.46875 C 23.890625 -44.789062 21.566406 -42.363281 19.828125 -39.1875 C 18.085938 -36.007812 17.21875 -32.335938 17.21875 -28.171875 C 17.21875 -23.941406 18.085938 -20.238281 19.828125 -17.0625 C 21.566406 -13.882812 23.890625 -11.457031 26.796875 -9.78125 C 29.703125 -8.113281 32.863281 -7.28125 36.28125 -7.28125 C 39.757812 -7.28125 42.945312 -8.113281 45.84375 -9.78125 C 48.75 -11.457031 51.054688 -13.882812 52.765625 -17.0625 C 54.472656 -20.238281 55.328125 -23.976562 55.328125 -28.28125 Z M 55.328125 -28.28125 "/></g></g></g><g fill="#ffffff" fill-opacity="1"><g transform="translate(279.003694, 217.580164)"><g><path d="M 56.25 -56.15625 L 22.4375 26.4375 L 12.8125 26.4375 L 23.875 -0.609375 L 1.234375 -56.15625 L 11.578125 -56.15625 L 29.203125 -10.65625 L 46.625 -56.15625 Z M 56.25 -56.15625 "/></g></g></g></svg>