<svg xmlns="http://www.w3.org/2000/svg" xmlns:xlink="http://www.w3.org/1999/xlink" width="500" zoomAndPan="magnify" viewBox="0 0 375 374.999991" height="500" preserveAspectRatio="xMidYMid meet" version="1.0"><defs><clipPath id="487605e5a4"><path d="M 10.46875 6 L 206 6 L 206 253 L 10.46875 253 Z M 10.46875 6 " clip-rule="nonzero"/></clipPath><clipPath id="329bdb890a"><path d="M 217 17 L 364.46875 17 L 364.46875 289 L 217 289 Z M 217 17 " clip-rule="nonzero"/></clipPath></defs><rect x="-37.5" width="450" fill="#ffffff" y="-37.499999" height="449.999989" fill-opacity="1"/><rect x="-37.5" width="450" fill="#ffffff" y="-37.499999" height="449.999989" fill-opacity="1"/><rect x="-37.5" width="450" fill="#ffffff" y="-37.499999" height="449.999989" fill-opacity="1"/><g clip-path="url(#487605e5a4)"><path fill="#7ed957" d="M 205.949219 29.8125 L 182.230469 41.523438 L 158.511719 53.257812 L 158.511719 42.488281 C 88.453125 55.984375 35.535156 117.570312 35.535156 191.527344 C 35.535156 208.554688 38.34375 224.917969 43.519531 240.179688 L 21.425781 252.933594 C 14.339844 233.800781 10.46875 213.105469 10.46875 191.527344 C 10.46875 103.691406 74.546875 30.835938 158.511719 17.039062 L 158.511719 6.351562 Z M 205.949219 29.8125 " fill-opacity="1" fill-rule="evenodd"/></g><g clip-path="url(#329bdb890a)"><path fill="#7ed957" d="M 318.3125 288.410156 L 320.015625 262.019531 L 321.703125 235.648438 L 342.03125 247.359375 L 331.054688 241.042969 C 336.414062 225.519531 339.324219 208.855469 339.324219 191.527344 C 339.324219 117.890625 286.84375 56.484375 217.210938 42.667969 L 217.210938 17.179688 C 300.773438 31.335938 364.386719 104.011719 364.386719 191.527344 C 364.386719 213.425781 360.414062 234.402344 353.128906 253.753906 L 362.359375 259.089844 L 340.347656 273.75 Z M 318.3125 288.410156 " fill-opacity="1" fill-rule="evenodd"/></g><path fill="#7ed957" d="M 38.023438 256.363281 L 60.035156 271.023438 L 82.050781 285.679688 L 61.722656 297.414062 L 72.738281 291.054688 C 100.59375 323.0625 141.652344 343.316406 187.429688 343.316406 C 232.902344 343.316406 273.699219 323.34375 301.535156 291.71875 L 323.609375 304.472656 C 291.140625 343.496094 242.195312 368.363281 187.429688 368.363281 C 132.339844 368.363281 83.132812 343.214844 50.683594 303.769531 L 41.414062 309.125 L 39.707031 282.753906 Z M 38.023438 256.363281 " fill-opacity="1" fill-rule="evenodd"/></svg>