<svg xmlns="http://www.w3.org/2000/svg" xmlns:xlink="http://www.w3.org/1999/xlink" width="500" zoomAndPan="magnify" viewBox="0 0 375 374.999991" height="500" preserveAspectRatio="xMidYMid meet" version="1.0"><defs><clipPath id="f6c36f3cd0"><path d="M 37.5 38 L 199 38 L 199 242 L 37.5 242 Z M 37.5 38 " clip-rule="nonzero"/></clipPath><clipPath id="8fb824e039"><path d="M 207 47 L 328.5 47 L 328.5 271 L 207 271 Z M 207 47 " clip-rule="nonzero"/></clipPath><clipPath id="d8628f5715"><path d="M 60 243 L 295 243 L 295 336.75 L 60 336.75 Z M 60 243 " clip-rule="nonzero"/></clipPath></defs><g clip-path="url(#f6c36f3cd0)"><path fill="#7ed957" d="M 198.195312 57.535156 L 178.695312 67.167969 L 159.195312 76.820312 L 159.195312 67.960938 C 101.605469 79.066406 58.105469 129.730469 58.105469 190.574219 C 58.105469 204.578125 60.414062 218.042969 64.667969 230.597656 L 46.507812 241.089844 C 40.683594 225.351562 37.5 208.324219 37.5 190.574219 C 37.5 118.3125 90.171875 58.375 159.195312 47.027344 L 159.195312 38.234375 L 178.695312 47.882812 Z M 198.195312 57.535156 " fill-opacity="1" fill-rule="evenodd"/></g><g clip-path="url(#8fb824e039)"><path fill="#7ed957" d="M 290.558594 270.273438 L 291.960938 248.5625 L 293.347656 226.867188 L 310.058594 236.503906 L 301.03125 231.304688 C 305.4375 218.535156 307.828125 204.828125 307.828125 190.574219 C 307.828125 129.992188 264.691406 79.476562 207.449219 68.109375 L 207.449219 47.140625 C 276.140625 58.789062 328.433594 118.578125 328.433594 190.574219 C 328.433594 208.589844 325.167969 225.84375 319.179688 241.765625 L 326.769531 246.152344 L 308.671875 258.214844 Z M 290.558594 270.273438 " fill-opacity="1" fill-rule="evenodd"/></g><g clip-path="url(#d8628f5715)"><path fill="#7ed957" d="M 60.148438 243.910156 L 78.246094 255.96875 L 96.34375 268.03125 L 79.632812 277.679688 L 88.6875 272.453125 C 111.585938 298.78125 145.339844 315.445312 182.96875 315.445312 C 220.347656 315.445312 253.886719 299.011719 276.765625 272.996094 L 294.914062 283.488281 C 268.222656 315.59375 227.984375 336.050781 182.96875 336.050781 C 137.683594 336.050781 97.234375 315.363281 70.558594 282.910156 L 62.9375 287.316406 L 61.535156 265.621094 Z M 60.148438 243.910156 " fill-opacity="1" fill-rule="evenodd"/></g></svg>