<svg xmlns="http://www.w3.org/2000/svg" xmlns:xlink="http://www.w3.org/1999/xlink" width="500" zoomAndPan="magnify" viewBox="0 0 375 374.999991" height="500" preserveAspectRatio="xMidYMid meet" version="1.0"><defs><clipPath id="e237aab0c9"><path d="M 5.367188 176 L 122 176 L 122 335 L 5.367188 335 Z M 5.367188 176 " clip-rule="nonzero"/></clipPath></defs><path fill="#3e721d" d="M 311.980469 304.242188 C 308.410156 304.242188 304.953125 302.386719 303.066406 299.074219 L 259.640625 227.539062 C 256.832031 222.628906 257.929688 216.476562 262.839844 213.65625 L 313.679688 182.894531 C 315.28125 181.980469 318.765625 181.191406 320.488281 181.191406 C 324.058594 181.191406 327.382812 183.222656 329.269531 186.53125 L 361.128906 239.054688 L 362.808594 261.941406 C 365.617188 266.855469 352.984375 274.082031 348.0625 276.894531 L 317.042969 302.886719 C 315.457031 303.8125 313.703125 304.242188 311.980469 304.242188 Z M 311.980469 304.242188 " fill-opacity="1" fill-rule="nonzero"/><path fill="#77b255" d="M 240.1875 335.003906 C 234.519531 335.003906 229.933594 330.421875 229.933594 324.75 L 229.933594 263.222656 C 229.933594 257.554688 234.519531 252.96875 240.1875 252.96875 L 342.730469 252.96875 C 361.703125 252.96875 358.625 234.707031 358.625 234.707031 C 358.625 234.707031 361.980469 240.46875 362.472656 241.382812 C 365.824219 247.679688 368.050781 257.296875 362.820312 267.070312 L 331.144531 329.847656 C 329.65625 332.808594 326.109375 335.003906 322.222656 335.003906 Z M 240.1875 335.003906 " fill-opacity="1" fill-rule="nonzero"/><path fill="#77b255" d="M 229.933594 365.765625 C 227.269531 365.765625 224.644531 364.722656 222.683594 362.761719 L 161.160156 301.238281 C 157.152344 297.226562 157.152344 290.746094 161.160156 286.738281 L 222.683594 225.210938 C 224.644531 223.253906 227.269531 222.207031 229.933594 222.207031 C 231.257812 222.207031 232.589844 222.453125 233.863281 222.988281 C 237.699219 224.566406 240.1875 228.320312 240.1875 232.460938 L 240.1875 355.511719 C 240.1875 359.65625 237.699219 363.410156 233.863281 364.988281 C 232.589844 365.519531 231.257812 365.765625 229.933594 365.765625 Z M 229.933594 365.765625 " fill-opacity="1" fill-rule="nonzero"/><path fill="#3e721d" d="M 215.507812 40.699219 C 217.128906 43.875 217.046875 47.792969 214.953125 50.992188 L 170.933594 122.15625 C 167.824219 126.90625 161.847656 128.710938 157.109375 125.601562 L 106.617188 94.285156 C 105.078125 93.269531 102.78125 90.523438 102.003906 88.996094 C 100.382812 85.816406 100.679688 81.941406 102.773438 78.742188 L 135.09375 26.503906 L 154.71875 14.621094 C 157.828125 9.875 170 17.851562 174.746094 20.96875 L 211.980469 36.800781 C 213.539062 37.816406 214.726562 39.179688 215.507812 40.699219 Z M 215.507812 40.699219 " fill-opacity="1" fill-rule="nonzero"/><path fill="#77b255" d="M 275.503906 90.695312 C 278.078125 95.753906 276.089844 101.914062 271.023438 104.5 L 216.195312 132.433594 C 211.148438 134.996094 204.976562 132.996094 202.414062 127.949219 L 155.839844 36.585938 C 147.234375 19.675781 132.355469 30.710938 132.355469 30.710938 C 132.355469 30.710938 135.964844 25.109375 136.558594 24.25 C 140.652344 18.40625 148.199219 12.066406 159.285156 12.28125 L 229.617188 11.996094 C 232.941406 11.996094 236.496094 14.140625 238.273438 17.605469 Z M 275.503906 90.695312 " fill-opacity="1" fill-rule="nonzero"/><path fill="#77b255" d="M 307.570312 85.878906 C 308.78125 88.246094 309.035156 91.054688 308.183594 93.691406 L 281.308594 176.453125 C 279.566406 181.835938 273.78125 184.78125 268.386719 183.035156 L 185.636719 156.140625 C 182.992188 155.289062 180.878906 153.421875 179.660156 151.054688 C 179.054688 149.882812 178.675781 148.570312 178.5625 147.199219 C 178.234375 143.054688 180.449219 139.136719 184.140625 137.261719 L 293.777344 81.394531 C 297.46875 79.507812 301.929688 80.023438 305.089844 82.730469 C 306.144531 83.613281 306.976562 84.699219 307.570312 85.878906 Z M 307.570312 85.878906 " fill-opacity="1" fill-rule="nonzero"/><path fill="#3e721d" d="M 38.949219 258.527344 C 40.804688 255.484375 44.179688 253.503906 47.992188 253.617188 L 131.679688 253.667969 C 137.347656 253.84375 142.027344 257.972656 141.882812 263.632812 L 141.738281 323.058594 C 141.6875 324.902344 140.550781 328.308594 139.65625 329.765625 C 137.800781 332.808594 134.335938 334.605469 130.519531 334.492188 L 69.097656 334.410156 L 48.660156 323.960938 C 43.011719 323.785156 43.398438 309.246094 43.542969 303.59375 L 37.464844 263.5625 C 37.503906 261.726562 38.058594 259.996094 38.949219 258.527344 Z M 38.949219 258.527344 " fill-opacity="1" fill-rule="nonzero"/><g clip-path="url(#e237aab0c9)"><path fill="#77b255" d="M 49.984375 181.210938 C 52.925781 176.371094 59.234375 174.832031 64.074219 177.777344 L 116.636719 209.757812 C 121.484375 212.703125 123.015625 218.996094 120.070312 223.847656 L 66.78125 311.449219 C 56.9375 327.652344 74.132812 334.523438 74.132812 334.523438 C 74.132812 334.523438 67.46875 334.378906 66.429688 334.316406 C 59.292969 333.925781 49.933594 330.820312 44.292969 321.285156 L 7.109375 261.605469 C 5.355469 258.785156 5.328125 254.609375 7.347656 251.289062 Z M 49.984375 181.210938 " fill-opacity="1" fill-rule="nonzero"/></g><path fill="#77b255" d="M 29.023438 156.46875 C 30.417969 154.171875 32.664062 152.488281 35.359375 151.8125 L 119.90625 131.242188 C 125.414062 129.890625 130.949219 133.261719 132.292969 138.769531 L 152.875 223.304688 C 153.53125 226.011719 153.046875 228.78125 151.664062 231.066406 C 150.988281 232.183594 150.074219 233.199219 148.957031 234.019531 C 145.613281 236.460938 141.125 236.644531 137.574219 234.492188 L 32.46875 170.558594 C 28.921875 168.394531 27.023438 164.3125 27.660156 160.222656 C 27.863281 158.847656 28.335938 157.59375 29.023438 156.46875 Z M 29.023438 156.46875 " fill-opacity="1" fill-rule="nonzero"/></svg>